<svg width="14" height="14" viewBox="0 0 14 14" xmlns="http://www.w3.org/2000/svg">
<path d="M10.5735 8.32352C9.60045 8.32352 8.80883 9.11515 8.80883 10.0882C8.80883 11.0613 9.60045 11.8529 10.5735 11.8529C11.5468 11.8529 12.3382 11.0613 12.3382 10.0882C12.3382 9.11515 11.5466 8.32352 10.5735 8.32352ZM10.5735 10.9706C10.0869 10.9706 9.69118 10.5748 9.69118 10.0882C9.69118 9.60162 10.0869 9.20588 10.5735 9.20588C11.0601 9.20588 11.4559 9.60162 11.4559 10.0882C11.4559 10.5749 11.0601 10.9706 10.5735 10.9706ZM4.54413 8.32352C3.57105 8.32352 2.77942 9.11515 2.77942 10.0882C2.77942 11.0613 3.57105 11.8529 4.54413 11.8529C5.51721 11.8529 6.30884 11.0613 6.30884 10.0882C6.30884 9.11515 5.51721 8.32352 4.54413 8.32352ZM4.54413 10.9706C4.05752 10.9706 3.66177 10.5748 3.66177 10.0882C3.66177 9.60162 4.05752 9.20588 4.54413 9.20588C5.0306 9.20588 5.42649 9.60162 5.42649 10.0882C5.42649 10.5749 5.03074 10.9706 4.54413 10.9706ZM11.7619 3.27236C11.7252 3.19932 11.6688 3.13793 11.5992 3.09503C11.5296 3.05213 11.4494 3.02942 11.3677 3.02942H9.04412V3.91177H11.0956L12.2969 6.30118L13.0854 5.90469L11.7619 3.27236Z" />
<path d="M5.91177 9.66178H9.25001V10.5441H5.91177V9.66178ZM3.22057 9.66178H1.69118C1.4475 9.66178 1.25002 9.85928 1.25002 10.1029C1.25002 10.3466 1.44752 10.5441 1.69118 10.5441H3.2206C3.46429 10.5441 3.66177 10.3466 3.66177 10.1029C3.66177 9.85925 3.46426 9.66178 3.22057 9.66178ZM13.9074 6.9647L13.0396 5.84705C12.9984 5.79391 12.9456 5.75091 12.8852 5.72134C12.8248 5.69177 12.7584 5.67642 12.6912 5.67645H9.4853V2.58822C9.4853 2.34453 9.2878 2.14706 9.04414 2.14706H1.69118C1.4475 2.14706 1.25002 2.34456 1.25002 2.58822C1.25002 2.83188 1.44752 3.02939 1.69118 3.02939H8.60295V6.11762C8.60295 6.3613 8.80045 6.55878 9.04411 6.55878H12.4751L13.1176 7.38642V9.66172H11.897C11.6534 9.66172 11.4559 9.85923 11.4559 10.1029C11.4559 10.3466 11.6534 10.5441 11.897 10.5441H13.5588C13.8025 10.5441 14 10.3465 14 10.1029V7.23529C14 7.13735 13.9674 7.04205 13.9074 6.9647ZM3.19118 7.42648H1.16175C0.918066 7.42648 0.72059 7.62398 0.72059 7.86764C0.72059 8.11133 0.918094 8.30881 1.16175 8.30881H3.19115C3.43484 8.30881 3.63232 8.1113 3.63232 7.86764C3.63234 7.62398 3.43484 7.42648 3.19118 7.42648ZM4.20588 5.69116H0.441164C0.197504 5.69116 0 5.88867 0 6.13235C0 6.37604 0.197504 6.57352 0.441164 6.57352H4.20588C4.44957 6.57352 4.64704 6.37602 4.64704 6.13235C4.64704 5.88869 4.44957 5.69116 4.20588 5.69116Z" />
<path d="M4.92646 3.95588H1.16175C0.918058 3.95588 0.720581 4.15338 0.720581 4.39704C0.720581 4.64073 0.918085 4.8382 1.16175 4.8382H4.92646C5.17015 4.8382 5.36762 4.6407 5.36762 4.39704C5.36765 4.15338 5.17015 3.95588 4.92646 3.95588Z" />
</svg>
